<svg width="27" height="24" viewBox="0 0 27 24" fill="none" xmlns="http://www.w3.org/2000/svg">
<path d="M13.5 24C13.1925 23.9997 12.8976 23.8771 12.6803 23.6591L2.21042 13.1389C0.793595 11.6907 0 9.74371 0 7.71598C0 5.68821 0.793595 3.74127 2.21042 2.29316C3.64604 0.855023 5.59306 0.0471159 7.62323 0.0471159C9.65339 0.0471159 11.6004 0.855023 13.036 2.29316L13.5 2.69599L13.933 2.26217C14.6429 1.54326 15.4883 0.973009 16.4203 0.584657C17.3522 0.19629 18.352 -0.00241803 19.3613 7.64665e-05C20.3696 -0.00444772 21.3687 0.191828 22.3006 0.577499C23.2324 0.963185 24.0785 1.53055 24.7896 2.24667C26.2063 3.69479 27 5.64173 27 7.6695C27 9.69723 26.2063 11.6442 24.7896 13.0924L14.3196 23.6127C14.216 23.729 14.09 23.8232 13.9491 23.8898C13.8084 23.9563 13.6556 23.9938 13.5 24ZM7.6387 2.30865C6.93632 2.30352 6.23987 2.43781 5.58955 2.70373C4.93924 2.96966 4.34793 3.36196 3.84973 3.85803C2.84584 4.86845 2.28226 6.23609 2.28226 7.66175C2.28226 9.08739 2.84584 10.455 3.84973 11.4655L13.5 21.1956L23.1348 11.4965C23.6337 10.9972 24.0296 10.4042 24.2996 9.75146C24.5696 9.09886 24.7087 8.39927 24.7087 7.69274C24.7087 6.98621 24.5696 6.28661 24.2996 5.63394C24.0296 4.98128 23.6337 4.38833 23.1348 3.88902C22.6405 3.39202 22.0521 2.99896 21.4041 2.73288C20.7561 2.46683 20.0615 2.33313 19.3613 2.33964C18.6589 2.33451 17.9625 2.46879 17.3122 2.73471C16.6618 3.00065 16.0705 3.39295 15.5723 3.88902L14.3196 5.14401C14.0983 5.35434 13.805 5.4716 13.5 5.4716C13.195 5.4716 12.9016 5.35434 12.6803 5.14401L11.4277 3.88902C10.932 3.38736 10.3419 2.98934 9.69142 2.71804C9.04099 2.44675 8.34324 2.30758 7.6387 2.30865Z" fill="#C2A0D5"/>
</svg>
