<svg width="32" height="32" viewBox="0 0 32 32" fill="none" xmlns="http://www.w3.org/2000/svg">
<path d="M16.2128 15.4932C16.1728 15.4932 16.1461 15.4932 16.1061 15.4932C16.0395 15.4798 15.9461 15.4798 15.8661 15.4932C11.9995 15.3732 9.07947 12.3332 9.07947 8.5865C9.07947 4.77317 12.1861 1.6665 15.9995 1.6665C19.8128 1.6665 22.9195 4.77317 22.9195 8.5865C22.9061 12.3332 19.9728 15.3732 16.2528 15.4932C16.2395 15.4932 16.2261 15.4932 16.2128 15.4932ZM15.9995 3.6665C13.2928 3.6665 11.0795 5.87984 11.0795 8.5865C11.0795 11.2532 13.1595 13.3998 15.8128 13.4932C15.8795 13.4798 16.0661 13.4798 16.2395 13.4932C18.8528 13.3732 20.9061 11.2265 20.9195 8.5865C20.9195 5.87984 18.7061 3.6665 15.9995 3.6665Z" fill="#CB1ECE"/>
<path d="M16.2261 30.0668C13.6128 30.0668 10.9861 29.4002 8.99948 28.0668C7.14615 26.8402 6.13281 25.1602 6.13281 23.3335C6.13281 21.5068 7.14615 19.8135 8.99948 18.5735C12.9995 15.9202 19.4795 15.9202 23.4528 18.5735C25.2928 19.8002 26.3195 21.4802 26.3195 23.3068C26.3195 25.1335 25.3061 26.8268 23.4528 28.0668C21.4528 29.4002 18.8395 30.0668 16.2261 30.0668ZM10.1061 20.2535C8.82615 21.1068 8.13281 22.2002 8.13281 23.3468C8.13281 24.4802 8.83948 25.5735 10.1061 26.4135C13.4261 28.6402 19.0261 28.6402 22.3461 26.4135C23.6261 25.5602 24.3195 24.4668 24.3195 23.3202C24.3195 22.1868 23.6128 21.0935 22.3461 20.2535C19.0261 18.0402 13.4261 18.0402 10.1061 20.2535Z" fill="#CB1ECE"/>
</svg>
