<svg width="17" height="17" viewBox="0 0 17 17" fill="none" xmlns="http://www.w3.org/2000/svg">
<path d="M8.10465 16.2093C3.63721 16.2093 0 12.5721 0 8.10465C0 3.63721 3.63721 0 8.10465 0C12.5721 0 16.2093 3.63721 16.2093 8.10465C16.2093 12.5721 12.5721 16.2093 8.10465 16.2093ZM8.10465 1.18605C4.28558 1.18605 1.18605 4.29349 1.18605 8.10465C1.18605 11.9158 4.28558 15.0233 8.10465 15.0233C11.9237 15.0233 15.0233 11.9158 15.0233 8.10465C15.0233 4.29349 11.9237 1.18605 8.10465 1.18605Z" fill="white"/>
<path d="M16.407 16.9998C16.2568 16.9998 16.1065 16.9445 15.9879 16.8259L14.4065 15.2445C14.1772 15.0152 14.1772 14.6357 14.4065 14.4064C14.6358 14.177 15.0154 14.177 15.2447 14.4064L16.8261 15.9877C17.0554 16.217 17.0554 16.5966 16.8261 16.8259C16.7075 16.9445 16.5572 16.9998 16.407 16.9998Z" fill="white"/>
</svg>
