<svg width="25" height="27" viewBox="0 0 25 27" fill="none" xmlns="http://www.w3.org/2000/svg">
<path fill-rule="evenodd" clip-rule="evenodd" d="M12.8495 2.58285C12.6213 2.51551 12.3788 2.51551 12.1504 2.58285C12.0848 2.60223 11.9693 2.65073 11.7237 2.8391C11.4654 3.0372 11.1492 3.32072 10.6564 3.7644L4.10691 9.66153C3.30398 10.3845 3.07636 10.6025 2.91811 10.8436C2.76589 11.0756 2.65249 11.3314 2.58248 11.6007C2.50969 11.8808 2.50007 12.1978 2.50007 13.2861V18.1368C2.50007 19.3341 2.50075 20.1686 2.54474 20.8217C2.58798 21.4637 2.66883 21.8374 2.78553 22.1227C3.16612 23.0535 3.89614 23.793 4.81498 24.1785C5.09672 24.2967 5.46572 24.3786 6.09935 24.4225C6.74422 24.467 7.56808 24.4677 8.75002 24.4677H16.25C17.4319 24.4677 18.2558 24.467 18.9006 24.4225C19.5342 24.3786 19.9032 24.2967 20.185 24.1785C21.1039 23.793 21.8338 23.0535 22.2145 22.1227C22.3311 21.8374 22.412 21.4637 22.4552 20.8217C22.4992 20.1686 22.5 19.3341 22.5 18.1368V13.2861C22.5 12.1978 22.4903 11.8808 22.4175 11.6007C22.3475 11.3314 22.2341 11.0756 22.0818 10.8436C21.9236 10.6025 21.696 10.3845 20.8931 9.66153L14.3435 3.7644C13.8508 3.32072 13.5345 3.0372 13.2763 2.8391C13.0307 2.65073 12.9152 2.60223 12.8495 2.58285ZM11.4514 0.151504C12.1363 -0.0505013 12.8637 -0.0505013 13.5485 0.151504C14.0237 0.291682 14.4177 0.538181 14.7853 0.820132C15.1315 1.08567 15.5215 1.43677 15.9705 1.84107L22.554 7.76884C22.5895 7.80075 22.6243 7.83223 22.659 7.8633C23.3111 8.44981 23.8036 8.8929 24.1638 9.44168C24.4682 9.9056 24.6951 10.4172 24.8351 10.9559C25.0007 11.5932 25.0004 12.2605 24.9999 13.1438C24.9999 13.1906 24.9999 13.238 24.9999 13.2861V18.1817C24.9999 19.3236 24.9999 20.2446 24.9494 20.9942C24.8974 21.7649 24.7881 22.4465 24.5242 23.0918C23.8898 24.6431 22.6731 25.8755 21.1417 26.5181C20.5046 26.7854 19.8317 26.8963 19.0707 26.9488C18.3307 27 17.4215 27 16.2944 27H8.70562C7.57842 27 6.66918 27 5.92918 26.9488C5.16826 26.8963 4.49541 26.7854 3.85829 26.5181C2.32688 25.8755 1.11018 24.643 0.475844 23.0918C0.211934 22.4465 0.102484 21.7649 0.0505598 20.9942C7.27171e-05 20.2446 8.53655e-05 19.3236 8.53655e-05 18.1817V13.2861C8.53655e-05 13.238 6.03148e-05 13.1906 4.78149e-05 13.1438C-0.000414681 12.2605 -0.000752279 11.5932 0.164896 10.9559C0.304933 10.4172 0.531743 9.9056 0.836191 9.44168C1.19634 8.8929 1.68895 8.44981 2.34103 7.86331C2.37558 7.83223 2.41057 7.80075 2.44602 7.76884L9.0295 1.84109C9.4785 1.43677 9.86841 1.08567 10.2147 0.820132C10.5823 0.538181 10.9763 0.291682 11.4514 0.151504Z" fill="#C2A0D5"/>
</svg>
