<svg width="24" height="24" viewBox="0 0 24 24" fill="none" xmlns="http://www.w3.org/2000/svg">
<path fill-rule="evenodd" clip-rule="evenodd" d="M12 0C12.7364 0 13.3333 0.596958 13.3333 1.33333V12.781L16.3905 9.72384C16.9112 9.20314 17.7555 9.20314 18.2761 9.72384C18.7968 10.2445 18.7968 11.0888 18.2761 11.6094L12.9428 16.9428C12.6928 17.1928 12.3536 17.3333 12 17.3333C11.6464 17.3333 11.3072 17.1928 11.0572 16.9428L5.72389 11.6094C5.2032 11.0888 5.2032 10.2445 5.72389 9.72384C6.24458 9.20314 7.08881 9.20314 7.6095 9.72384L10.6667 12.781V1.33333C10.6667 0.596958 11.2636 0 12 0ZM1.33338 14.6666C2.06975 14.6666 2.66671 15.2636 2.66671 16C2.66671 17.3029 2.67317 17.7597 2.74357 18.1137C3.05919 19.7003 4.29957 20.9407 5.88634 21.2565C6.24026 21.3269 6.69703 21.3333 8.00003 21.3333H16C17.3029 21.3333 17.7597 21.3269 18.1137 21.2565C19.7004 20.9407 20.9408 19.7003 21.2565 18.1137C21.3269 17.7597 21.3333 17.3029 21.3333 16C21.3333 15.2636 21.9303 14.6666 22.6666 14.6666C23.403 14.6666 24 15.2636 24 16C24 16.0522 24 16.1036 24 16.1542C24.0002 17.2445 24.0005 17.9874 23.8718 18.634C23.3458 21.2785 21.2785 23.3458 18.634 23.8718C17.9876 24.0005 17.2445 24.0002 16.1544 23.9999C16.1037 23.9999 16.0523 23.9999 16 23.9999H8.00003C7.9478 23.9999 7.89635 23.9999 7.84566 23.9999C6.75554 24.0002 6.01249 24.0005 5.36611 23.8718C2.7215 23.3458 0.654184 21.2785 0.128145 18.634C-0.000427797 17.9874 -0.000254558 17.2445 2.54414e-05 16.1544C3.87747e-05 16.1036 5.21442e-05 16.0522 5.21442e-05 16C5.21442e-05 15.2636 0.596997 14.6666 1.33338 14.6666Z" fill="white"/>
</svg>
