<svg width="32" height="32" viewBox="0 0 32 32" fill="none" xmlns="http://www.w3.org/2000/svg">
<path d="M16 30.3332C8.09335 30.3332 1.66669 23.9065 1.66669 15.9998C1.66669 8.09317 8.09335 1.6665 16 1.6665C23.9067 1.6665 30.3334 8.09317 30.3334 15.9998C30.3334 23.9065 23.9067 30.3332 16 30.3332ZM16 3.6665C9.20002 3.6665 3.66669 9.19984 3.66669 15.9998C3.66669 22.7998 9.20002 28.3332 16 28.3332C22.8 28.3332 28.3334 22.7998 28.3334 15.9998C28.3334 9.19984 22.8 3.6665 16 3.6665Z" fill="white" fill-opacity="0.6"/>
<path d="M20.9467 21.2399C20.7734 21.2399 20.6 21.1998 20.44 21.0932L16.3067 18.6265C15.28 18.0132 14.52 16.6665 14.52 15.4798V10.0132C14.52 9.46652 14.9734 9.01318 15.52 9.01318C16.0667 9.01318 16.52 9.46652 16.52 10.0132V15.4798C16.52 15.9598 16.92 16.6665 17.3334 16.9065L21.4667 19.3732C21.9467 19.6532 22.0934 20.2665 21.8134 20.7465C21.6134 21.0665 21.28 21.2399 20.9467 21.2399Z" fill="white" fill-opacity="0.6"/>
</svg>
