<svg width="25" height="22" viewBox="0 0 25 22" fill="none" xmlns="http://www.w3.org/2000/svg">
<path d="M12.5 21.7742C12.2153 21.7739 11.9422 21.6627 11.741 21.4649L2.04669 11.9203C0.73481 10.6064 0 8.84006 0 7.00038C0 5.16068 0.73481 3.39429 2.04669 2.08048C3.37596 0.775727 5.17876 0.0427463 7.05855 0.0427463C8.93833 0.0427463 10.7411 0.775727 12.0704 2.08048L12.5 2.44596L12.9009 2.05237C13.5582 1.40013 14.3411 0.88277 15.204 0.530435C16.0669 0.178086 16.9926 -0.00219378 17.9271 6.93749e-05C18.8608 -0.00403523 19.7858 0.174037 20.6487 0.523941C21.5115 0.873858 22.2949 1.38861 22.9533 2.03831C24.2651 3.35212 25 5.11851 25 6.95821C25 8.79789 24.2651 10.5643 22.9533 11.8782L13.2589 21.4228C13.163 21.5283 13.0463 21.6138 12.9158 21.6743C12.7855 21.7346 12.644 21.7686 12.5 21.7742ZM7.07287 2.09454C6.42251 2.08989 5.77766 2.21172 5.17551 2.45298C4.57337 2.69425 4.02586 3.05017 3.56457 3.50023C2.63504 4.41694 2.1132 5.65774 2.1132 6.95118C2.1132 8.24461 2.63504 9.48541 3.56457 10.4022L12.5 19.2299L21.4211 10.4303C21.8831 9.97726 22.2496 9.4393 22.4997 8.84709C22.7497 8.25501 22.8784 7.62031 22.8784 6.9793C22.8784 6.33829 22.7497 5.70358 22.4997 5.11144C22.2496 4.51931 21.8831 3.98135 21.4211 3.52834C20.9634 3.07744 20.4186 2.72083 19.8186 2.47943C19.2186 2.23805 18.5755 2.11675 17.9271 2.12265C17.2767 2.118 16.6319 2.23983 16.0298 2.48109C15.4276 2.72236 14.88 3.07828 14.4188 3.52834L13.2589 4.66695C13.054 4.85777 12.7824 4.96415 12.5 4.96415C12.2176 4.96415 11.946 4.85777 11.741 4.66695L10.5812 3.52834C10.1222 3.07321 9.57579 2.7121 8.97354 2.46597C8.37128 2.21983 7.72523 2.09357 7.07287 2.09454Z" fill="white"/>
</svg>
