<svg width="29" height="29" viewBox="0 0 29 29" fill="none" xmlns="http://www.w3.org/2000/svg">
<path d="M14.619 2.74869C15.7145 2.31047 16.9547 2.51766 17.8456 3.2689L18.0448 3.45187L25.5482 10.9552C26.3825 11.7896 26.6806 13.0111 26.3411 14.1259L26.2514 14.381L22.4951 23.7717C22.0671 24.842 21.0925 25.5975 19.9469 25.7427L11.8801 26.7492C11.6726 26.7743 11.4545 26.8044 11.2277 26.8387L10.5234 26.9535C10.4023 26.9746 10.2796 26.9965 10.1555 27.0192L9.0075 27.2432L8.22035 27.4097L7.03737 27.6753L5.51984 28.0374L3.05527 28.6662L2.02923 28.9427C1.52799 29.081 0.915692 28.9787 0.468522 28.5315C0.0710512 28.1341 -0.0540161 27.606 0.0203452 27.1417L0.0741401 26.9102L0.543325 25.144L0.962704 23.4802L1.32474 21.9627L1.59032 20.7797L1.75689 19.9926L1.98082 18.8446L2.10687 18.1188L2.20956 17.4389L3.25734 9.05321C3.39144 7.99569 4.04542 7.084 4.98707 6.61326L5.22835 6.50494L14.619 2.74869ZM15.7987 5.69798L6.40843 9.4541L5.48082 16.8736C5.45448 17.089 5.4289 17.2991 5.40428 17.5023C5.28168 18.5137 5.05667 19.7381 4.79394 20.9852L4.52102 22.2328L9.74341 17.0105C9.46038 15.9507 9.73456 14.7732 10.566 13.9417C11.8065 12.7012 13.8177 12.7012 15.0581 13.9417C16.2987 15.1822 16.2987 17.1935 15.0581 18.4339C14.2268 19.2654 13.0493 19.5395 11.9896 19.2565L6.76704 24.4791L7.39011 24.3404L8.6355 24.0782C9.45838 23.9126 10.2571 23.7686 10.9753 23.6653L19.546 22.5916L23.3021 13.2013L15.7987 5.69798ZM19.5505 0.465181C20.123 -0.107349 21.0238 -0.15139 21.6469 0.333059L21.7966 0.465181L28.5349 7.20353C29.1551 7.82378 29.1551 8.8294 28.5349 9.44964C27.9624 10.0222 27.0614 10.0662 26.4384 9.58176L26.2888 9.44964L19.5505 2.71129C18.9301 2.09105 18.9301 1.08542 19.5505 0.465181Z" fill="#C2A0D5"/>
</svg>
