<?xml version="1.0" standalone="no"?>
<!DOCTYPE svg PUBLIC "-//W3C//DTD SVG 20010904//EN"
 "http://www.w3.org/TR/2001/REC-SVG-20010904/DTD/svg10.dtd">
<svg version="1.0" xmlns="http://www.w3.org/2000/svg"
 width="1920.000000pt" height="1920.000000pt" viewBox="0 0 1920.000000 1920.000000"
 preserveAspectRatio="xMidYMid meet">

<g transform="translate(0.000000,1920.000000) scale(0.100000,-0.100000)"
fill="#000000" stroke="none">
<path d="M12220 17664 c-14 -2 -59 -9 -100 -15 -273 -38 -684 -184 -975 -346
-450 -251 -728 -482 -1001 -833 -49 -63 -100 -132 -113 -153 -13 -21 -29 -43
-35 -50 -7 -7 -19 -24 -26 -37 -7 -14 -37 -61 -65 -105 -88 -136 -221 -412
-291 -605 -51 -138 -109 -364 -135 -525 -18 -111 -23 -182 -23 -345 -2 -364 9
-392 149 -411 132 -18 365 1 575 47 246 55 470 142 705 276 118 67 358 226
375 248 3 3 14 13 26 21 73 50 340 307 414 399 139 171 290 376 290 394 0 3
19 36 42 73 200 326 367 777 428 1158 31 189 42 419 30 590 -11 156 -15 172
-56 204 -23 18 -40 21 -108 20 -44 -1 -92 -3 -106 -5z"/>
<path d="M11845 14305 c-146 -17 -255 -37 -460 -86 -161 -38 -525 -153 -588
-185 -16 -9 -63 -28 -105 -44 -109 -39 -391 -149 -427 -165 -117 -53 -405
-137 -513 -149 -97 -12 -309 28 -498 95 -49 17 -231 86 -404 154 -374 145
-414 159 -635 225 -466 140 -792 163 -1270 90 -479 -74 -896 -233 -1320 -504
-111 -71 -331 -228 -350 -250 -5 -6 -37 -34 -70 -61 -102 -84 -324 -312 -425
-435 -25 -30 -47 -57 -50 -60 -24 -23 -180 -248 -240 -345 -354 -575 -561
-1223 -637 -1995 -21 -218 -24 -884 -5 -1120 63 -770 243 -1541 553 -2367 114
-306 299 -716 424 -943 259 -469 336 -595 575 -936 132 -189 395 -542 445
-599 15 -16 55 -63 89 -104 394 -476 767 -767 1150 -897 145 -50 276 -69 471
-69 352 1 584 59 1122 283 281 117 376 152 527 192 366 97 739 114 1108 50
186 -32 351 -83 578 -180 490 -208 606 -250 826 -297 122 -26 144 -27 384 -28
230 0 265 3 360 23 240 53 397 118 642 267 133 81 326 243 477 401 103 107
273 305 321 374 13 19 30 41 37 48 7 7 13 17 13 20 0 4 10 19 23 32 12 14 33
41 47 60 13 19 28 40 32 45 8 9 75 102 125 172 12 16 45 65 75 109 29 43 57
84 61 89 35 42 152 215 235 349 180 288 333 579 518 981 128 280 304 757 304
825 0 55 -24 78 -136 131 -366 171 -754 460 -1010 754 -394 453 -637 1007
-699 1593 -17 157 -19 512 -5 651 59 561 311 1136 693 1580 177 206 424 427
655 585 156 108 170 140 104 242 -101 155 -380 468 -536 599 -26 22 -62 53
-79 68 -128 114 -400 286 -622 393 -211 101 -332 146 -616 229 -349 101 -921
151 -1274 110z"/>
</g>
</svg>
